<?xml version="1.0" encoding="UTF-8" standalone="no"?>
<svg
   xmlns:dc="http://purl.org/dc/elements/1.1/"
   xmlns:cc="http://creativecommons.org/ns#"
   xmlns:rdf="http://www.w3.org/1999/02/22-rdf-syntax-ns#"
   xmlns:svg="http://www.w3.org/2000/svg"
   xmlns="http://www.w3.org/2000/svg"
   width="128mm"
   height="128mm"
   viewBox="0 0 128 128"
   version="1.1"
   id="svg8">
  <defs
     id="defs2" />
  <metadata
     id="metadata5">
    <rdf:RDF>
      <cc:Work
         rdf:about="">
        <dc:format>image/svg+xml</dc:format>
        <dc:type
           rdf:resource="http://purl.org/dc/dcmitype/StillImage" />
        <dc:title></dc:title>
      </cc:Work>
    </rdf:RDF>
  </metadata>
  <g
     id="layer1">
    <ellipse
       style="fill:none;stroke:#000000;stroke-width:0.264576;stroke-miterlimit:4;stroke-dasharray:none"
       id="path833"
       cx="64"
       cy="64"
       rx="63.86771"
       ry="63.867714" />
    <path
       id="path837"
       style="fill:none;stroke:#000000;stroke-width:0.264576;stroke-miterlimit:4;stroke-dasharray:none"
       d="M 113.75741,78.11031 C 54.092788,91.1156 92.311489,115.98535 65.856615,115.98535 39.401741,115.98535 26.948374,96.996514 17.955828,78.11031 9.0440523,59.393739 50.451792,97.84352 66.074282,75.566878 78.582425,57.731084 60.123946,13.499942 76.99633,13.499942 c 26.45488,0 55.39728,60.548174 36.76108,64.610368 z" />
    <path
       id="path842"
       style="fill:none;stroke:#000000;stroke-width:0.264576;stroke-miterlimit:4;stroke-dasharray:none"
       d="m 58.313322,69.939735 c -6.287461,7.024627 -18.81328,6.069969 -27.977206,-2.132292 -9.163925,-8.20226 -10.753112,-23.516684 -4.46565,-30.541312 6.287462,-7.024627 21.783878,-14.98174 30.947799,-6.77948 9.163923,8.202263 7.782517,32.428458 1.495057,39.453084 z" />
    <path
       id="path844"
       style="fill:none;stroke:#000000;stroke-width:0.264576;stroke-miterlimit:4;stroke-dasharray:none"
       d="m 110.93409,93.347311 a 7.3934628,14.077293 64.425592 0 1 -9.50645,12.746019 7.3934628,14.077293 64.425592 0 1 -15.889708,-0.59217 7.3934628,14.077293 64.425592 0 1 9.506448,-12.746009 7.3934628,14.077293 64.425592 0 1 15.88971,0.59216 z" />
  </g>
</svg>
